<?xml version="1.0" encoding="utf-8"?><svg viewBox="0 0 131 36" xmlns="http://www.w3.org/2000/svg" xmlns:xlink="http://www.w3.org/1999/xlink"><style>:root>svg{display:none}:root>svg:target{display:block}</style><svg viewBox="0 0 25 24" id="arrow-back" xmlns="http://www.w3.org/2000/svg"><path d="m12.334 20-8-8 8-8 1.425 1.4-5.6 5.6h12.175v2H8.159l5.6 5.6-1.425 1.4Z"/></svg><svg viewBox="0 0 24 24" id="burger" xmlns="http://www.w3.org/2000/svg"><path d="M3 5h18v2H3zM3 17h18v2H3zM3 11h18v2H3z"/></svg><svg viewBox="0 0 36 36" id="close" xmlns="http://www.w3.org/2000/svg"><path fill-rule="evenodd" clip-rule="evenodd" d="M18 20.952 23.048 26 26 23.048 20.952 18 26 12.952 23.048 10 18 15.048 12.952 10 10 12.952 15.048 18 10 23.048 12.952 26 18 20.952Z"/></svg><svg fill="none" viewBox="0 0 131 24" id="logo-black" xmlns="http://www.w3.org/2000/svg"><path d="M6.066 15.021c.417 0 .738-.072.963-.217.24-.144.417-.329.53-.553a1.9 1.9 0 0 0 .192-.747 6.61 6.61 0 0 0 .048-.77V6.018h4.237v7.053c0 1.027-.144 1.91-.433 2.648-.273.738-.666 1.348-1.18 1.83-.513.465-1.14.81-1.877 1.035-.739.208-1.581.313-2.528.313-.93 0-1.765-.105-2.503-.313-.739-.225-1.365-.57-1.878-1.035-.498-.482-.899-1.092-1.204-1.83C.144 14.981 0 14.1 0 13.071V6.018h4.26v6.716c0 .305.033.602.097.89.064.274.16.514.289.723.144.209.329.377.554.505.24.113.53.169.866.169ZM18.435 7.414c.578-.626 1.172-1.059 1.781-1.3.61-.24 1.3-.36 2.07-.36.931.015 1.734.192 2.408.529a4.97 4.97 0 0 1 1.709 1.396 6.04 6.04 0 0 1 1.06 2.046c.24.786.36 1.621.36 2.504a9.69 9.69 0 0 1-.36 2.696 5.84 5.84 0 0 1-1.132 2.142 5.25 5.25 0 0 1-1.83 1.396c-.706.321-1.516.466-2.431.434a5.587 5.587 0 0 1-2.094-.386c-.626-.256-1.108-.553-1.445-.89v5.922h-4.26V6.018h3.947l.217 1.396Zm2.648 2.239c-.433 0-.81.08-1.131.24-.305.145-.57.346-.795.602-.209.241-.369.522-.481.843a3.1 3.1 0 0 0-.145.939c0 .353.048.698.145 1.035.096.32.257.61.481.866.225.241.506.442.843.602.337.16.738.241 1.203.241.482 0 .875-.08 1.18-.24.32-.177.57-.394.746-.65.193-.258.321-.546.385-.867.08-.321.12-.65.12-.987 0-.29-.048-.586-.144-.89a2.224 2.224 0 0 0-.433-.844 2.137 2.137 0 0 0-.77-.625c-.321-.177-.723-.265-1.204-.265ZM31.62 0c.353 0 .682.056.987.169.305.112.57.28.794.505.24.225.425.49.554.794.144.305.217.658.217 1.06 0 .866-.257 1.508-.77 1.925-.498.402-1.092.602-1.782.602-.337 0-.658-.048-.963-.144a2.94 2.94 0 0 1-.843-.482 2.317 2.317 0 0 1-.577-.77 3.036 3.036 0 0 1-.193-1.131c0-.402.072-.755.217-1.06.144-.305.337-.57.578-.794A2.679 2.679 0 0 1 31.619 0Zm-2.167 6.018h4.261v13.529c0 1.492-.32 2.607-.963 3.346C32.11 23.63 31.002 24 29.43 24h-2.214v-3.828h.987c.32 0 .57-.056.746-.168.176-.096.297-.209.36-.337a.801.801 0 0 0 .121-.433c.016-.145.024-.265.024-.361V6.018ZM42.388 18.897c-.93 0-1.797-.137-2.6-.41a5.976 5.976 0 0 1-2.07-1.275 6.173 6.173 0 0 1-1.42-2.07c-.337-.819-.505-1.766-.505-2.841 0-1.027.176-1.95.53-2.768a6.172 6.172 0 0 1 1.42-2.07 5.977 5.977 0 0 1 2.07-1.276 7.547 7.547 0 0 1 2.575-.434c.931 0 1.79.153 2.576.458a5.694 5.694 0 0 1 2.07 1.275 5.895 5.895 0 0 1 1.397 2.07c.353.82.53 1.734.53 2.745 0 1.075-.17 2.03-.506 2.864a5.637 5.637 0 0 1-1.372 2.07 5.87 5.87 0 0 1-2.07 1.253c-.787.272-1.662.409-2.625.409Zm0-9.172c-.465 0-.858.088-1.18.265a2.454 2.454 0 0 0-.745.65c-.177.24-.305.513-.386.818a3.41 3.41 0 0 0-.12.867c0 .337.04.666.12.987.08.305.217.578.41.818.192.241.441.442.746.602.305.145.69.217 1.155.217.45 0 .827-.072 1.132-.217.32-.16.57-.36.746-.602.193-.256.329-.537.41-.842.08-.321.12-.642.12-.963 0-.257-.04-.538-.12-.843a2.679 2.679 0 0 0-.386-.842 2.127 2.127 0 0 0-.746-.65c-.321-.177-.706-.265-1.156-.265ZM56.75 15.021c.417 0 .738-.072.962-.217.241-.144.418-.329.53-.553.112-.225.177-.474.193-.746.032-.273.048-.53.048-.77V6.017h4.236v7.053c0 1.027-.144 1.91-.433 2.648-.273.738-.666 1.348-1.18 1.83-.513.465-1.139.81-1.877 1.035-.738.208-1.58.313-2.528.313-.93 0-1.765-.105-2.503-.313-.738-.225-1.364-.57-1.878-1.035-.497-.482-.898-1.092-1.203-1.83-.29-.738-.434-1.62-.434-2.648V6.018h4.261v6.716c0 .305.032.602.096.89.065.274.16.514.29.723.144.209.328.377.553.506.24.112.53.168.866.168ZM68.974 7.222c.24-.353.505-.626.794-.819.29-.192.578-.337.867-.433.289-.096.578-.153.866-.169a8.51 8.51 0 0 1 1.517-.024c.209 0 .345.008.41.024v4.117h-.82c-.449 0-.882.04-1.3.12-.4.08-.761.233-1.082.457-.305.21-.554.506-.747.891-.176.385-.264.899-.264 1.54v5.778h-4.261V6.018h3.731l.289 1.204ZM78.898 7.174c.288-.305.602-.554.939-.747.337-.192.665-.337.986-.433.337-.096.658-.16.963-.193.305-.032.562-.048.77-.048.77 0 1.445.129 2.023.385.577.241 1.075.594 1.492 1.06.466.545.787 1.211.963 1.998.193.77.289 1.604.289 2.503v7.005h-4.26V12.06c0-.257-.033-.521-.097-.794a2.248 2.248 0 0 0-.289-.795 1.602 1.602 0 0 0-.602-.577c-.257-.16-.586-.241-.987-.241-.353 0-.682.088-.987.265-.305.16-.537.369-.698.626-.144.24-.249.505-.313.794a3.78 3.78 0 0 0-.096.819v6.547h-4.26V5.994h3.923l.24 1.18ZM97.223 17.043c-.321.482-.674.85-1.06 1.108-.368.24-.746.417-1.13.529-.37.112-.715.177-1.036.193-.32.016-.561.024-.722.024a5.22 5.22 0 0 1-1.565-.241 3.725 3.725 0 0 1-1.324-.746 3.89 3.89 0 0 1-.938-1.252c-.241-.514-.362-1.131-.362-1.854 0-.738.185-1.38.554-1.925.385-.546.843-.955 1.372-1.228a5.303 5.303 0 0 1 1.228-.433c.45-.113.899-.185 1.348-.217.465-.032.947-.048 1.444-.048h2.07a1.58 1.58 0 0 0-.505-1.132c-.305-.32-.738-.481-1.3-.481-.417 0-.802.088-1.155.265-.337.176-.53.401-.578.674h-4.237c.096-.787.33-1.46.698-2.022a4.56 4.56 0 0 1 1.372-1.396 5.948 5.948 0 0 1 1.806-.819 7.861 7.861 0 0 1 2.046-.265c.85 0 1.589.089 2.215.265a4.838 4.838 0 0 1 1.66.795c1.349.978 2.023 2.664 2.023 5.055v6.812h-3.924v-1.66Zm-2.456-3.466c-.4 0-.746.08-1.035.24-.288.16-.433.426-.433.795 0 .337.128.594.385.77.273.177.602.265.987.265.337 0 .65-.056.939-.169.305-.112.562-.264.77-.457a2.58 2.58 0 0 0 .53-.674c.144-.24.225-.497.24-.77h-2.383ZM107.65 18.704h-4.261V1.661h4.261v17.043ZM108.263 22.58v-3.707h11.507v3.707h-11.507Z" fill="#222826"/><path d="M119.278 22.58v-3.707h11.506v3.707h-11.506Z" fill="#222826"/></svg><svg fill="none" viewBox="0 0 131 24" id="logo-color" xmlns="http://www.w3.org/2000/svg"><path d="M6.066 15.021c.417 0 .738-.072.963-.217.24-.144.417-.329.53-.553a1.9 1.9 0 0 0 .192-.746c.032-.273.048-.53.048-.77V6.017h4.237v7.053c0 1.027-.144 1.91-.433 2.648-.273.738-.666 1.348-1.18 1.83-.513.465-1.14.81-1.877 1.035-.739.208-1.581.313-2.528.313-.93 0-1.765-.105-2.503-.313-.739-.225-1.365-.57-1.878-1.035-.498-.482-.899-1.092-1.204-1.83C.144 14.981 0 14.1 0 13.071V6.018h4.26v6.716c0 .305.033.602.097.89.064.274.16.514.289.723.144.209.329.377.554.506.24.112.53.168.866.168ZM18.435 7.414c.578-.626 1.172-1.059 1.781-1.3.61-.24 1.3-.36 2.07-.36.931.015 1.734.192 2.408.529a4.97 4.97 0 0 1 1.709 1.396 6.04 6.04 0 0 1 1.06 2.046c.24.787.36 1.621.36 2.504a9.69 9.69 0 0 1-.36 2.696 5.839 5.839 0 0 1-1.132 2.142 5.25 5.25 0 0 1-1.83 1.396c-.706.321-1.516.466-2.431.434a5.589 5.589 0 0 1-2.094-.385c-.626-.257-1.108-.554-1.445-.891v5.922h-4.26V6.018h3.947l.217 1.396Zm2.648 2.239c-.433 0-.81.08-1.131.24-.305.145-.57.346-.795.602-.209.241-.369.522-.481.843a3.1 3.1 0 0 0-.145.939c0 .353.048.698.145 1.035.096.32.257.61.481.867.225.24.506.44.843.601.337.16.738.241 1.203.241.482 0 .875-.08 1.18-.24.32-.177.57-.394.746-.65.193-.257.321-.546.385-.867.08-.321.12-.65.12-.987 0-.289-.048-.586-.144-.89a2.223 2.223 0 0 0-.433-.843 2.137 2.137 0 0 0-.77-.626c-.321-.177-.723-.265-1.204-.265Z" fill="#7C87FF"/><path d="M31.62 0c.353 0 .682.056.987.169.305.112.57.28.794.505.24.225.425.49.554.794.144.305.217.658.217 1.06 0 .866-.257 1.508-.77 1.925-.498.402-1.092.602-1.782.602-.337 0-.658-.048-.963-.144a2.94 2.94 0 0 1-.843-.482 2.317 2.317 0 0 1-.577-.77 3.036 3.036 0 0 1-.193-1.131c0-.402.072-.755.217-1.06.144-.305.337-.57.578-.794A2.679 2.679 0 0 1 31.619 0Zm-2.167 6.018h4.261v13.529c0 1.492-.32 2.607-.963 3.346C32.11 23.63 31.002 24 29.43 24h-2.214v-3.828h.987c.32 0 .57-.056.746-.168.176-.096.297-.209.36-.337a.801.801 0 0 0 .121-.433c.016-.145.024-.265.024-.361V6.018ZM42.388 18.897c-.93 0-1.797-.137-2.6-.41a5.976 5.976 0 0 1-2.07-1.275 6.173 6.173 0 0 1-1.42-2.07c-.337-.819-.505-1.766-.505-2.841 0-1.027.176-1.95.53-2.768a6.172 6.172 0 0 1 1.42-2.07 5.977 5.977 0 0 1 2.07-1.276 7.547 7.547 0 0 1 2.575-.434c.931 0 1.79.153 2.576.458a5.694 5.694 0 0 1 2.07 1.275 5.895 5.895 0 0 1 1.397 2.07c.353.82.53 1.734.53 2.745 0 1.075-.17 2.03-.506 2.864a5.637 5.637 0 0 1-1.372 2.07 5.87 5.87 0 0 1-2.07 1.253c-.787.272-1.662.409-2.625.409Zm0-9.172c-.465 0-.858.088-1.18.265a2.454 2.454 0 0 0-.745.65c-.177.24-.305.513-.386.818a3.41 3.41 0 0 0-.12.867c0 .337.04.666.12.987.08.305.217.578.41.818.192.241.441.442.746.602.305.145.69.217 1.155.217.45 0 .827-.072 1.132-.217.32-.16.57-.36.746-.602.193-.256.329-.537.41-.842.08-.321.12-.642.12-.963 0-.257-.04-.538-.12-.843a2.679 2.679 0 0 0-.386-.842 2.127 2.127 0 0 0-.746-.65c-.321-.177-.706-.265-1.156-.265ZM56.75 15.021c.417 0 .738-.072.962-.217.241-.144.418-.329.53-.553.112-.225.177-.474.193-.746.032-.273.048-.53.048-.77V6.017h4.236v7.053c0 1.027-.144 1.91-.433 2.648-.273.738-.666 1.348-1.18 1.83-.513.465-1.139.81-1.877 1.035-.738.208-1.58.313-2.528.313-.93 0-1.765-.105-2.503-.313-.738-.225-1.364-.57-1.878-1.035-.497-.482-.898-1.092-1.203-1.83-.29-.738-.434-1.62-.434-2.648V6.018h4.261v6.716c0 .305.032.602.096.89.065.274.16.514.29.723.144.209.328.377.553.506.24.112.53.168.866.168ZM68.974 7.222c.24-.353.505-.626.794-.819.29-.192.578-.337.867-.433.289-.096.578-.153.866-.169a8.51 8.51 0 0 1 1.517-.024c.209 0 .345.008.41.024v4.117h-.82c-.449 0-.882.04-1.3.12-.4.08-.761.233-1.082.457-.305.21-.554.506-.747.891-.176.385-.264.899-.264 1.54v5.778h-4.261V6.018h3.731l.289 1.204ZM78.898 7.174c.288-.305.602-.554.939-.747.337-.192.665-.337.986-.433.337-.096.658-.16.963-.193.305-.032.562-.048.77-.048.77 0 1.445.129 2.023.385.577.241 1.075.594 1.492 1.06.466.545.787 1.211.963 1.998.193.77.289 1.604.289 2.503v7.005h-4.26V12.06c0-.257-.033-.521-.097-.794a2.248 2.248 0 0 0-.289-.795 1.602 1.602 0 0 0-.602-.577c-.257-.16-.586-.241-.987-.241-.353 0-.682.088-.987.265-.305.16-.537.369-.698.626-.144.24-.249.505-.313.794a3.78 3.78 0 0 0-.096.819v6.547h-4.26V5.994h3.923l.24 1.18ZM97.223 17.043c-.321.482-.674.85-1.06 1.108-.368.24-.746.417-1.13.529-.37.112-.715.177-1.036.193-.32.016-.561.024-.722.024a5.22 5.22 0 0 1-1.565-.241 3.725 3.725 0 0 1-1.324-.746 3.89 3.89 0 0 1-.938-1.252c-.241-.514-.362-1.131-.362-1.854 0-.738.185-1.38.554-1.925.385-.546.843-.955 1.372-1.228a5.303 5.303 0 0 1 1.228-.433c.45-.113.899-.185 1.348-.217.465-.032.947-.048 1.444-.048h2.07a1.58 1.58 0 0 0-.505-1.132c-.305-.32-.738-.481-1.3-.481-.417 0-.802.088-1.155.265-.337.176-.53.401-.578.674h-4.237c.096-.787.33-1.46.698-2.022a4.56 4.56 0 0 1 1.372-1.396 5.948 5.948 0 0 1 1.806-.819 7.861 7.861 0 0 1 2.046-.265c.85 0 1.589.089 2.215.265a4.838 4.838 0 0 1 1.66.795c1.349.978 2.023 2.664 2.023 5.055v6.812h-3.924v-1.66Zm-2.456-3.466c-.4 0-.746.08-1.035.24-.288.16-.433.426-.433.795 0 .337.128.594.385.77.273.177.602.265.987.265.337 0 .65-.056.939-.169.305-.112.562-.264.77-.457a2.58 2.58 0 0 0 .53-.674c.144-.24.225-.497.24-.77h-2.383ZM107.65 18.704h-4.261V1.661h4.261v17.043ZM108.263 22.58v-3.707h11.507v3.707h-11.507Z" fill="#222826"/><path d="M119.278 22.58v-3.707h11.506v3.707h-11.506Z" fill="#222826"/></svg><svg viewBox="0 0 24 24" id="mail" xmlns="http://www.w3.org/2000/svg"><path d="M4 19c-.55 0-1.02-.196-1.413-.587A1.926 1.926 0 0 1 2 17V7c0-.55.196-1.02.587-1.412A1.926 1.926 0 0 1 4 5h16c.55 0 1.02.196 1.413.588.391.391.587.862.587 1.412v10c0 .55-.196 1.02-.587 1.413A1.926 1.926 0 0 1 20 19H4Zm8-5L4 9v8h16V9l-8 5Zm0-2 8-5H4l8 5ZM4 9V7v10-8Z"/></svg><svg viewBox="0 0 24 24" id="search" xmlns="http://www.w3.org/2000/svg"><path d="M15.5 14h-.79l-.28-.27a6.51 6.51 0 1 0-.7.7l.27.28v.79l5 4.99L20.49 19l-4.99-5Zm-6 0a4.5 4.5 0 1 1 4.16-2.777A4.495 4.495 0 0 1 9.5 14Z"/></svg><svg fill="#7C87FF" viewBox="0 0 30 30" id="spinner" xmlns="http://www.w3.org/2000/svg"><path d="M16 3a3 3 0 1 0 .002 6.002A3 3 0 0 0 16 3ZM8.937 6.438a2.502 2.502 0 0 0-2.5 2.5c0 1.378 1.122 2.5 2.5 2.5 1.38 0 2.5-1.122 2.5-2.5 0-1.38-1.12-2.5-2.5-2.5Zm14.126 1.5c-.551 0-1 .449-1 1 0 .55.449 1 1 1 .55 0 1-.45 1-1 0-.551-.45-1-1-1ZM6 13.75a2.25 2.25 0 1 0 .001 4.501A2.25 2.25 0 0 0 6 13.75Zm20 1c-.691 0-1.25.559-1.25 1.25s.559 1.25 1.25 1.25 1.25-.559 1.25-1.25-.559-1.25-1.25-1.25ZM8.937 21.063c-1.105 0-2 .894-2 2a1.999 1.999 0 1 0 4 0c0-1.106-.894-2-2-2Zm14.126.5a1.5 1.5 0 1 0 0 3 1.5 1.5 0 0 0 0-3ZM16 24.25c-.965 0-1.75.785-1.75 1.75s.785 1.75 1.75 1.75 1.75-.785 1.75-1.75-.785-1.75-1.75-1.75Z"/></svg><svg viewBox="0 0 24 24" id="telegram" xmlns="http://www.w3.org/2000/svg"><g clip-path="url(#ia)"><path d="M13.44 22.374 2.126 11.061l19.092-7.779-7.778 19.092Zm-.707-3.535 4.843-11.915-11.914 4.844 2.474 2.474 5.304-3.182-3.182 5.304 2.475 2.475Z"/></g><defs><clipPath id="ia"><path fill="#fff" d="M0 0h24v24H0z"/></clipPath></defs></svg></svg>