<svg width="131" height="24" viewBox="0 0 131 24" fill="none" xmlns="http://www.w3.org/2000/svg">
<path d="M6.0662 15.021C6.48345 15.021 6.80441 14.9488 7.02909 14.8043C7.26981 14.6599 7.44634 14.4753 7.55868 14.2507C7.67101 14.026 7.73521 13.7772 7.75125 13.5044C7.78335 13.2316 7.7994 12.9748 7.7994 12.7341V6.01797H12.0361V13.0711C12.0361 14.0982 11.8917 14.9809 11.6028 15.7191C11.33 16.4573 10.9368 17.0671 10.4233 17.5486C9.90973 18.014 9.28385 18.359 8.54564 18.5837C7.80742 18.7923 6.96489 18.8966 6.01805 18.8966C5.08726 18.8966 4.25276 18.7923 3.51454 18.5837C2.77633 18.359 2.15045 18.014 1.63691 17.5486C1.13942 17.0671 0.738215 16.4573 0.4333 15.7191C0.144433 14.9809 0 14.0982 0 13.0711V6.01797H4.26078V12.7341C4.26078 13.039 4.29288 13.3359 4.35707 13.6248C4.42126 13.8976 4.51755 14.1383 4.64594 14.347C4.79037 14.5556 4.97492 14.7241 5.1996 14.8525C5.44032 14.9648 5.72919 15.021 6.0662 15.021Z" fill="#222826"/>
<path d="M18.435 7.41416C19.0127 6.78828 19.6065 6.35498 20.2163 6.11426C20.8262 5.87353 21.5162 5.75317 22.2865 5.75317C23.2173 5.76922 24.0197 5.94575 24.6938 6.28276C25.3678 6.61977 25.9375 7.08517 26.4029 7.67895C26.8683 8.25668 27.2214 8.93873 27.4621 9.72509C27.7028 10.5114 27.8232 11.346 27.8232 12.2286C27.8232 13.1915 27.7028 14.0902 27.4621 14.9247C27.2214 15.7431 26.8442 16.4573 26.3307 17.0671C25.8332 17.6609 25.2234 18.1263 24.5012 18.4633C23.7951 18.7843 22.9846 18.9287 22.0699 18.8966C21.3156 18.8966 20.6175 18.7682 19.9756 18.5114C19.3497 18.2547 18.8683 17.9578 18.5313 17.6208V23.5425H14.2705V6.01797H18.2183L18.435 7.41416ZM21.0829 9.65287C20.6496 9.65287 20.2725 9.73311 19.9515 9.8936C19.6466 10.038 19.3818 10.2386 19.1572 10.4954C18.9485 10.7361 18.7881 11.017 18.6757 11.3379C18.5794 11.6428 18.5313 11.9558 18.5313 12.2767C18.5313 12.6298 18.5794 12.9748 18.6757 13.3119C18.772 13.6328 18.9325 13.9217 19.1572 14.1784C19.3818 14.4192 19.6627 14.6198 19.9997 14.7803C20.3367 14.9407 20.7379 15.021 21.2033 15.021C21.6847 15.021 22.0779 14.9407 22.3828 14.7803C22.7038 14.6037 22.9525 14.3871 23.1291 14.1303C23.3217 13.8735 23.45 13.5847 23.5142 13.2637C23.5945 12.9427 23.6346 12.6138 23.6346 12.2767C23.6346 11.9879 23.5864 11.691 23.4902 11.3861C23.4099 11.0812 23.2655 10.8003 23.0569 10.5435C22.8643 10.2868 22.6075 10.0781 22.2865 9.91767C21.9656 9.74114 21.5644 9.65287 21.0829 9.65287Z" fill="#222826"/>
<path d="M31.6198 0C31.9729 0 32.3019 0.0561683 32.6068 0.168505C32.9117 0.280842 33.1765 0.449348 33.4012 0.674022C33.6419 0.898696 33.8264 1.16349 33.9548 1.4684C34.0993 1.77332 34.1715 2.12638 34.1715 2.52758C34.1715 3.39418 33.9147 4.03611 33.4012 4.45336C32.9037 4.85456 32.3099 5.05516 31.6198 5.05516C31.2828 5.05516 30.9618 5.00702 30.6569 4.91073C30.352 4.79839 30.0712 4.63791 29.8144 4.42929C29.5737 4.22066 29.3811 3.96389 29.2367 3.65898C29.1083 3.33801 29.0441 2.96088 29.0441 2.52758C29.0441 2.12638 29.1163 1.77332 29.2607 1.4684C29.4052 1.16349 29.5977 0.898696 29.8385 0.674022C30.0952 0.449348 30.3761 0.280842 30.681 0.168505C30.9859 0.0561683 31.2989 0 31.6198 0ZM29.4533 6.01805H33.7141V19.5466C33.7141 21.0391 33.3931 22.1545 32.7512 22.8927C32.1093 23.6309 31.002 24 29.4292 24H27.2146V20.1725H28.2016C28.5225 20.1725 28.7713 20.1163 28.9478 20.004C29.1243 19.9077 29.2447 19.7954 29.3089 19.667C29.3891 19.5386 29.4292 19.3942 29.4292 19.2337C29.4453 19.0893 29.4533 18.9689 29.4533 18.8726V6.01805Z" fill="#222826"/>
<path d="M42.3884 18.8967C41.4576 18.8967 40.591 18.7603 39.7886 18.4875C39.0022 18.1986 38.3121 17.7733 37.7184 17.2116C37.1246 16.6499 36.6512 15.9599 36.2981 15.1414C35.9611 14.323 35.7926 13.3761 35.7926 12.3009C35.7926 11.2738 35.9691 10.3511 36.3222 9.5326C36.6752 8.71414 37.1486 8.02407 37.7424 7.46239C38.3362 6.9007 39.0263 6.47542 39.8126 6.18656C40.615 5.89769 41.4736 5.75326 42.3884 5.75326C43.3192 5.75326 44.1777 5.90572 44.9641 6.21063C45.7665 6.4995 46.4566 6.92477 47.0343 7.48646C47.6281 8.04814 48.0935 8.73821 48.4305 9.55667C48.7836 10.3751 48.9601 11.2899 48.9601 12.3009C48.9601 13.3761 48.7916 14.331 48.4546 15.1655C48.1336 15.984 47.6762 16.674 47.0825 17.2357C46.5047 17.7813 45.8146 18.1986 45.0122 18.4875C44.2259 18.7603 43.3513 18.8967 42.3884 18.8967ZM42.3884 9.72517C41.923 9.72517 41.5298 9.81344 41.2088 9.98997C40.9039 10.1665 40.6552 10.3831 40.4626 10.6399C40.2861 10.8806 40.1577 11.1535 40.0774 11.4584C39.9972 11.7633 39.9571 12.0522 39.9571 12.325C39.9571 12.662 39.9972 12.991 40.0774 13.3119C40.1577 13.6169 40.2941 13.8897 40.4867 14.1304C40.6792 14.3711 40.928 14.5717 41.2329 14.7322C41.5378 14.8766 41.923 14.9488 42.3884 14.9488C42.8377 14.9488 43.2148 14.8766 43.5198 14.7322C43.8407 14.5717 44.0895 14.3711 44.266 14.1304C44.4586 13.8736 44.595 13.5928 44.6752 13.2879C44.7555 12.9669 44.7956 12.6459 44.7956 12.325C44.7956 12.0682 44.7555 11.7874 44.6752 11.4824C44.595 11.1775 44.4666 10.8967 44.2901 10.6399C44.1135 10.3831 43.8648 10.1665 43.5438 9.98997C43.2229 9.81344 42.8377 9.72517 42.3884 9.72517Z" fill="#222826"/>
<path d="M56.7495 15.0211C57.1668 15.0211 57.4877 14.9488 57.7124 14.8044C57.9531 14.66 58.1297 14.4754 58.242 14.2508C58.3543 14.0261 58.4185 13.7773 58.4346 13.5045C58.4667 13.2317 58.4827 12.9749 58.4827 12.7342V6.01805H62.7194V13.0712C62.7194 14.0983 62.575 14.9809 62.2861 15.7192C62.0133 16.4574 61.6201 17.0672 61.1066 17.5486C60.593 18.014 59.9672 18.3591 59.229 18.5837C58.4907 18.7924 57.6482 18.8967 56.7014 18.8967C55.7706 18.8967 54.9361 18.7924 54.1979 18.5837C53.4596 18.3591 52.8338 18.014 52.3202 17.5486C51.8227 17.0672 51.4215 16.4574 51.1166 15.7192C50.8278 14.9809 50.6833 14.0983 50.6833 13.0712V6.01805H54.9441V12.7342C54.9441 13.0391 54.9762 13.336 55.0404 13.6249C55.1046 13.8977 55.2009 14.1384 55.3293 14.347C55.4737 14.5557 55.6582 14.7242 55.8829 14.8526C56.1236 14.9649 56.4125 15.0211 56.7495 15.0211Z" fill="#222826"/>
<path d="M68.9739 7.22166C69.2146 6.86861 69.4794 6.59579 69.7683 6.40321C70.0571 6.21063 70.346 6.0662 70.6349 5.96991C70.9237 5.87362 71.2126 5.81745 71.5015 5.8014C71.8064 5.76931 72.1033 5.75326 72.3921 5.75326C72.6008 5.75326 72.8094 5.76128 73.018 5.77733C73.2266 5.77733 73.3631 5.78536 73.4272 5.8014V9.91775H72.6088C72.1594 9.91775 71.7261 9.95787 71.3089 10.0381C70.9077 10.1184 70.5466 10.2708 70.2256 10.4955C69.9207 10.7041 69.672 11.001 69.4794 11.3862C69.3029 11.7713 69.2146 12.2849 69.2146 12.9268V18.7041H64.9538V6.01805H68.685L68.9739 7.22166Z" fill="#222826"/>
<path d="M78.8977 7.17352C79.1865 6.86861 79.4995 6.61986 79.8365 6.42728C80.1735 6.2347 80.5025 6.09027 80.8234 5.99398C81.1604 5.89769 81.4814 5.8335 81.7863 5.8014C82.0912 5.76931 82.348 5.75326 82.5566 5.75326C83.3269 5.75326 84.001 5.88164 84.5787 6.13842C85.1564 6.37914 85.6539 6.7322 86.0712 7.19759C86.5366 7.74323 86.8575 8.40923 87.0341 9.19559C87.2266 9.9659 87.3229 10.8004 87.3229 11.6991V18.7041H83.0621V12.0602C83.0621 11.8034 83.03 11.5386 82.9659 11.2658C82.9177 10.9769 82.8214 10.7121 82.677 10.4714C82.5326 10.2307 82.332 10.0381 82.0752 9.89368C81.8184 9.7332 81.4894 9.65296 81.0882 9.65296C80.7352 9.65296 80.4062 9.74122 80.1013 9.91775C79.7964 10.0782 79.5636 10.2869 79.4032 10.5436C79.2587 10.7844 79.1544 11.0491 79.0902 11.338C79.026 11.6269 78.9939 11.8997 78.9939 12.1565V18.7041H74.7332V5.99398H78.6569L78.8977 7.17352Z" fill="#222826"/>
<path d="M97.2228 17.0431C96.9019 17.5246 96.5488 17.8937 96.1636 18.1505C95.7945 18.3912 95.4174 18.5677 95.0322 18.68C94.6631 18.7924 94.3181 18.8566 93.9971 18.8726C93.6762 18.8887 93.4355 18.8967 93.275 18.8967C92.7454 18.8967 92.2238 18.8164 91.7103 18.656C91.2128 18.4955 90.7715 18.2467 90.3863 17.9097C90.0011 17.5727 89.6882 17.1555 89.4475 16.658C89.2068 16.1444 89.0864 15.5266 89.0864 14.8044C89.0864 14.0662 89.271 13.4243 89.6401 12.8786C90.0252 12.333 90.4826 11.9238 91.0122 11.651C91.3973 11.4584 91.8066 11.3139 92.2399 11.2177C92.6892 11.1053 93.1386 11.0331 93.5879 11.001C94.0533 10.9689 94.5348 10.9529 95.0322 10.9529H97.1025C97.0864 10.5035 96.9179 10.1264 96.5969 9.82146C96.292 9.5005 95.8587 9.34002 95.297 9.34002C94.8798 9.34002 94.4946 9.42828 94.1416 9.60481C93.8046 9.78134 93.612 10.006 93.5638 10.2788H89.3271C89.4234 9.49248 89.6561 8.81845 90.0252 8.25677C90.3943 7.67904 90.8517 7.21364 91.3973 6.86058C91.943 6.49147 92.5448 6.21866 93.2028 6.04213C93.8607 5.8656 94.5428 5.77733 95.2489 5.77733C96.0995 5.77733 96.8377 5.8656 97.4635 6.04213C98.1055 6.21866 98.6591 6.48345 99.1245 6.83651C100.473 7.81545 101.147 9.5005 101.147 11.8917V18.7041H97.2228V17.0431ZM94.7674 13.5767C94.3662 13.5767 94.0212 13.657 93.7323 13.8175C93.4435 13.9779 93.299 14.2427 93.299 14.6118C93.299 14.9488 93.4274 15.2056 93.6842 15.3821C93.957 15.5587 94.286 15.6469 94.6712 15.6469C95.0082 15.6469 95.3211 15.5908 95.61 15.4784C95.9149 15.3661 96.1717 15.2136 96.3803 15.0211C96.605 14.8124 96.7815 14.5878 96.9099 14.347C97.0543 14.1063 97.1346 13.8495 97.1506 13.5767H94.7674Z" fill="#222826"/>
<path d="M107.65 18.7041H103.389V1.66098H107.65V18.7041Z" fill="#222826"/>
<path d="M108.263 22.5797V18.8726H119.77V22.5797H108.263Z" fill="#222826"/>
<path d="M119.278 22.5797V18.8726H130.784V22.5797H119.278Z" fill="#222826"/>
</svg>
