<svg width="24" height="24" viewBox="0 0 24 24" xmlns="http://www.w3.org/2000/svg">
<path d="M15.5004 13.9999H14.7104L14.4304 13.7299C15.527 12.4523 16.0859 10.7995 15.9899 9.11859C15.8938 7.43766 15.1502 5.85931 13.9153 4.71492C12.6803 3.57054 11.05 2.94913 9.36661 2.98116C7.68324 3.01319 6.07775 3.69618 4.8872 4.88672C3.69666 6.07726 3.01368 7.68275 2.98165 9.36613C2.94962 11.0495 3.57103 12.6798 4.71541 13.9148C5.8598 15.1498 7.43815 15.8933 9.11908 15.9894C10.8 16.0854 12.4528 15.5265 13.7304 14.4299L14.0004 14.7099V15.4999L19.0004 20.4899L20.4904 18.9999L15.5004 13.9999ZM9.50041 13.9999C8.61039 13.9999 7.74037 13.736 7.00034 13.2415C6.26032 12.7471 5.68355 12.0443 5.34295 11.222C5.00236 10.3997 4.91324 9.49493 5.08688 8.62201C5.26051 7.7491 5.68909 6.94728 6.31843 6.31794C6.94777 5.68861 7.74959 5.26002 8.6225 5.08639C9.49542 4.91275 10.4002 5.00187 11.2225 5.34246C12.0448 5.68306 12.7476 6.25983 13.242 6.99986C13.7365 7.73988 14.0004 8.60991 14.0004 9.49992C14.0012 10.0911 13.8853 10.6766 13.6595 11.2229C13.4336 11.7693 13.1022 12.2656 12.6842 12.6837C12.2661 13.1017 11.7697 13.4331 11.2234 13.659C10.6771 13.8849 10.0916 14.0007 9.50041 13.9999Z"/>
</svg>
